<?xml version="1.0" encoding="UTF-8"?>
<svg version="1.1" xmlns="http://www.w3.org/2000/svg" width="600" height="600">
<path d="M0 0 C198 0 396 0 600 0 C600 198 600 396 600 600 C402 600 204 600 0 600 C0 402 0 204 0 0 Z " fill="#FBFBFB" transform="translate(0,0)"/>
<path d="M0 0 C0.75796875 0.40734375 1.5159375 0.8146875 2.296875 1.234375 C10.83885234 6.33662992 16.46662017 14.40214555 19 24 C19.4260123 27.3865896 19.47686112 30.71464019 19.4375 34.125 C19.42614014 35.50715698 19.42614014 35.50715698 19.41455078 36.91723633 C19.11555087 49.42176183 15.9257262 61.30844831 7.375 70.8046875 C-4.99995301 82.32026877 -21.94041486 81.28040369 -37.6875 81.125 C-39.46809392 81.11494839 -41.24869333 81.1058264 -43.02929688 81.09765625 C-47.35300259 81.07581948 -51.67643926 81.04141037 -56 81 C-56.26176025 81.95120728 -56.26176025 81.95120728 -56.52880859 82.92163086 C-58.10713606 88.44474204 -59.95853266 93.48129475 -62.625 98.5625 C-63.15528809 99.58899658 -63.15528809 99.58899658 -63.69628906 100.63623047 C-64.4359159 102.064981 -65.17876424 103.49206839 -65.92480469 104.91748047 C-66.92213478 106.84918476 -67.87691143 108.79544686 -68.8203125 110.75390625 C-79.59390626 132.64890049 -94.57096032 153.18739898 -110 172 C-110.87000259 173.07014106 -111.73980787 174.14044257 -112.609375 175.2109375 C-114.01221269 176.9291783 -115.42066213 178.64288983 -116.83984375 180.34765625 C-117.55269531 181.22292969 -118.26554688 182.09820312 -119 183 C-119.56658829 183.58710754 -120.13317657 184.17421509 -120.7169342 184.77911377 C-126.50004276 191.22877389 -126.95883061 196.30774005 -126.71875 204.76171875 C-126.71167023 205.99927917 -126.70459045 207.2368396 -126.69729614 208.51190186 C-126.67097017 211.87124167 -126.61336876 215.22717549 -126.54096222 218.58564377 C-126.47157411 222.14609116 -126.4421472 225.70689665 -126.40771484 229.26782227 C-126.33844089 235.79959662 -126.23358379 242.33021337 -126.11128426 248.86119175 C-126.00863631 254.37489598 -125.93096488 259.88867894 -125.86152649 265.40290833 C-125.59786506 286.11580259 -125.0714996 306.82138058 -124.48828125 327.52734375 C-124.46580574 328.32718878 -124.44333023 329.12703381 -124.42017365 329.95111656 C-124.19660506 337.89633543 -123.9699834 345.84143123 -123.72882938 353.78613758 C-123.31618149 367.40731578 -122.91507393 381.02812888 -122.84375 394.65625 C-122.82942177 396.08117264 -122.82942177 396.08117264 -122.81480408 397.53488159 C-122.8136439 406.36203811 -123.74928059 415.13685236 -130.0625 421.875 C-134.0277068 424.74162137 -137.7737983 424.259852 -142.44921875 423.625 C-146.92442063 422.52847274 -148.43139518 421.82235378 -151.14453125 417.8984375 C-153.24172719 413.92555873 -154.05353576 410.04194019 -154.6875 405.625 C-154.80851074 404.83101807 -154.92952148 404.03703613 -155.05419922 403.21899414 C-156.59138931 392.60732182 -156.92631095 381.99922775 -157.20703125 371.296875 C-157.6343908 352.68782029 -157.6343908 352.68782029 -158.9375 334.125 C-159.01218506 333.32408936 -159.08687012 332.52317871 -159.16381836 331.69799805 C-159.55711742 328.08665115 -159.94829969 326.07755047 -162 323 C-164.27249635 322.56756815 -164.27249635 322.56756815 -166.90234375 322.671875 C-167.87494141 322.67703125 -168.84753906 322.6821875 -169.84960938 322.6875 C-171.37811523 322.7184375 -171.37811523 322.7184375 -172.9375 322.75 C-173.95263672 322.75515625 -174.96777344 322.7603125 -176.01367188 322.765625 C-181.5973147 322.77878829 -181.5973147 322.77878829 -187 324 C-189.38391012 337.09993326 -189.89683644 350.18270743 -190.2109375 363.45703125 C-190.90154292 392.53758751 -190.90154292 392.53758751 -191.875 402.6875 C-191.94130615 403.42661621 -192.0076123 404.16573242 -192.07592773 404.92724609 C-192.77270796 411.27634914 -193.93257245 418.52676544 -198.75 423.0625 C-202.6457441 425.38496283 -204.53693109 425.71727893 -209 425 C-214.56758576 422.0524546 -218.12540621 418.53232059 -220.1953125 412.5390625 C-220.51869333 411.23765183 -220.82836655 409.93276661 -221.125 408.625 C-221.43695313 407.35914063 -221.74890625 406.09328125 -222.0703125 404.7890625 C-224.5672451 392.82187781 -225.43460491 380.67974922 -226.0625 368.5 C-226.10324646 367.74795288 -226.14399292 366.99590576 -226.18597412 366.22106934 C-227.19667875 347.49391168 -227.62575042 328.74899097 -228 310 C-228.75418213 310.02102783 -229.50836426 310.04205566 -230.28540039 310.0637207 C-231.77027954 310.08825317 -231.77027954 310.08825317 -233.28515625 310.11328125 C-234.26621338 310.13430908 -235.24727051 310.15533691 -236.25805664 310.17700195 C-239.47526072 309.96932027 -241.53480827 309.12657103 -243.80053711 306.76953125 C-249.9250146 297.73427523 -249.6423421 287.26620736 -249.5 276.8125 C-249.49446106 276.01864899 -249.48892212 275.22479797 -249.48321533 274.40689087 C-249.37082166 260.63244174 -248.11518059 247.44659945 -245 234 C-244.79101074 233.0704248 -244.58202148 232.14084961 -244.36669922 231.18310547 C-231.63053559 175.63053559 -231.63053559 175.63053559 -222 166 C-221.95936168 164.33382885 -221.957279 162.66611905 -222 161 C-222.53367188 160.73896484 -223.06734375 160.47792969 -223.6171875 160.20898438 C-246.95631327 148.68074838 -246.95631327 148.68074838 -252 138 C-254.36374692 130.26717079 -253.78775277 121.76583824 -250.45703125 114.4453125 C-245.57659428 106.25455233 -237.72710695 97.97845513 -228.5625 94.8125 C-225.73619866 93.26201909 -225.73619866 93.26201909 -225.53100586 90.41674805 C-225.43638062 88.91688354 -225.43638062 88.91688354 -225.33984375 87.38671875 C-225.27015381 86.38213623 -225.20046387 85.37755371 -225.12866211 84.3425293 C-225.08620361 83.56949463 -225.04374512 82.79645996 -225 82 C-247.28250775 82.34208091 -269.50536136 83.13353834 -291.75 84.5 C-292.82376892 84.56571198 -293.89753784 84.63142395 -295.00384521 84.6991272 C-308.33355271 85.51134911 -308.33355271 85.51134911 -321.64453125 86.578125 C-327.74105402 87.10950886 -333.82013399 87.22050095 -339.9375 87.25 C-341.03384766 87.270625 -342.13019531 87.29125 -343.25976562 87.3125 C-344.8462793 87.32023437 -344.8462793 87.32023437 -346.46484375 87.328125 C-347.409646 87.3374707 -348.35444824 87.34681641 -349.32788086 87.35644531 C-352.522467 86.93030591 -354.39110196 85.85833069 -357 84 C-359.3360004 80.77409468 -359.53551359 77.901599 -359 74 C-356.73751338 69.14880776 -353.47833232 65.98158033 -348.5637207 63.90576172 C-338.36942149 60.30411901 -327.51190872 59.38429852 -316.8125 58.5 C-307.82108306 57.70374355 -298.85626855 56.85366497 -289.9375 55.4375 C-289.20184814 55.32277344 -288.46619629 55.20804688 -287.70825195 55.08984375 C-283.65726381 54.4125143 -279.8142567 53.53847492 -276 52 C-274.61773984 49.23547967 -274.90474613 46.9538637 -274.9375 43.875 C-274.94652344 42.77929688 -274.95554687 41.68359375 -274.96484375 40.5546875 C-274.97644531 39.71164063 -274.98804688 38.86859375 -275 38 C-278.30781548 36.89739484 -280.71374329 36.89270891 -284.19628906 36.91821289 C-285.4748175 36.9247438 -286.75334595 36.93127472 -288.07061768 36.93800354 C-288.75383339 36.94374453 -289.4370491 36.94948551 -290.14096832 36.95540047 C-292.28545318 36.97281729 -294.42986319 36.98309933 -296.57440186 36.99131775 C-302.67158089 37.01574077 -308.7686596 37.05118839 -314.86572266 37.09594727 C-318.59742313 37.12284107 -322.32906493 37.13981292 -326.06084442 37.15081596 C-327.47853506 37.15699706 -328.89621471 37.16696609 -330.3138504 37.18089485 C-332.30454251 37.20027087 -334.29535323 37.205972 -336.28613281 37.21118164 C-337.41625793 37.21863907 -338.54638306 37.2260965 -339.71075439 37.23377991 C-345.10939298 36.85007696 -348.91035224 35.99691178 -352.9375 32.3125 C-355.39593266 28.36410814 -355.81551218 26.5668682 -355 22 C-351.64605409 16.01081088 -346.546109 13.55933345 -340.09228516 11.56152344 C-322.33312527 6.79535451 -303.21995923 5.7651231 -284.98999023 3.75 C-284.08372391 3.64869781 -283.17745758 3.54739563 -282.24372864 3.44302368 C-280.5507298 3.25426414 -278.85738397 3.06857617 -277.16362 2.8868103 C-272.94033144 2.41478496 -268.79795161 1.79145588 -264.62548828 0.98144531 C-258.89020065 -0.09050033 -253.21105618 -0.53439725 -247.390625 -0.8515625 C-246.29144241 -0.91554733 -245.19225983 -0.97953217 -244.05976868 -1.04545593 C-240.45700905 -1.2495074 -236.85375736 -1.43943554 -233.25 -1.625 C-231.99726288 -1.69036957 -230.74452576 -1.75573914 -229.4538269 -1.8230896 C-189.36519095 -3.8686317 -149.37969564 -3.37485348 -109.28540039 -1.7121582 C-97.47923476 -1.22674828 -85.67088606 -0.84351561 -73.85546875 -0.6875 C-72.12348991 -0.64290649 -72.12348991 -0.64290649 -70.35652161 -0.59741211 C-63.20525375 -0.54734543 -58.2825963 -1.66593004 -52 -5 C-35.48152288 -11.87534239 -15.36593442 -8.32810186 0 0 Z " fill="#080808" transform="translate(478,103)"/>
<path d="M0 0 C4.61596961 4.51145709 6.29785481 8.35694632 6.6953125 14.8984375 C6.36044272 24.80810252 -0.12542751 30.47007697 -6.94921875 36.9375 C-7.66464844 37.66710937 -8.38007813 38.39671875 -9.1171875 39.1484375 C-9.79136719 39.81101563 -10.46554687 40.47359375 -11.16015625 41.15625 C-15.8393102 48.73792549 -15.21619763 58.81296245 -15.16015625 67.4453125 C-15.16015121 68.63219666 -15.16014618 69.81908081 -15.16014099 71.04193115 C-15.15723143 74.27439291 -15.14493319 77.50663411 -15.12732697 80.73904419 C-15.11704909 82.80120871 -15.11039635 84.86335454 -15.10491943 86.92553711 C-15.00051159 125.9393606 -14.26193889 164.9416803 -13.41796875 203.9453125 C-13.39549324 204.98707642 -13.37301773 206.02884033 -13.34986115 207.10217285 C-13.1244598 217.54762308 -12.89724616 227.9930162 -12.65852356 238.43817139 C-11.84738423 273.99907141 -11.84738423 273.99907141 -11.74609375 290.1328125 C-11.73287582 291.22418518 -11.7196579 292.31555786 -11.70603943 293.44000244 C-11.7045137 294.41596375 -11.70298798 295.39192505 -11.70141602 296.39746094 C-11.69690933 297.22808044 -11.69240265 298.05869995 -11.6877594 298.91448975 C-11.9296875 301.0234375 -11.9296875 301.0234375 -13.9296875 304.0234375 C-16.31887578 303.06776219 -17.65915111 302.47916638 -18.99353027 300.23135376 C-22.07572466 292.96203307 -22.22956106 285.02894133 -22.2734375 277.25 C-22.2880603 276.24617279 -22.30268311 275.24234558 -22.31774902 274.20809937 C-22.36381627 271.02158564 -22.39819369 267.83512634 -22.4296875 264.6484375 C-20.67595988 233.09633995 -20.67595988 233.09633995 -30.9296875 205.0234375 C-37.16626685 202.39002933 -43.62338425 202.69124026 -50.3046875 202.7109375 C-51.39007813 202.69482422 -52.47546875 202.67871094 -53.59375 202.66210938 C-60.06735547 202.65820019 -66.10282146 202.94957133 -71.9296875 206.0234375 C-73.75757665 207.81471562 -73.75757665 207.81471562 -74.4296875 210.0859375 C-74.708125 210.77816406 -74.9865625 211.47039062 -75.2734375 212.18359375 C-77.26271407 220.79195129 -77.16054696 229.80838675 -77.39453125 238.59765625 C-77.45298212 240.55760392 -77.51144264 242.51755136 -77.57043552 244.4774828 C-77.71326281 249.25360463 -77.84901281 254.02991557 -77.97924805 258.80639648 C-78.05297868 261.49963992 -78.13097751 264.1927011 -78.21327209 266.88569641 C-78.28988015 269.4011237 -78.36050615 271.91674371 -78.42381287 274.43254089 C-78.73208075 284.2519379 -79.29030295 294.5101418 -81.9296875 304.0234375 C-84.9296875 303.0234375 -84.9296875 303.0234375 -86.52026367 300.0234375 C-88.17189195 295.77168653 -88.8941859 291.53170302 -89.48046875 287.0234375 C-89.60351883 286.09394287 -89.72656891 285.16444824 -89.85334778 284.20678711 C-91.7288895 268.76181268 -92.24639517 253.16836386 -92.9899292 237.6373291 C-93.15936191 234.15717306 -93.33995712 230.6776329 -93.52047539 227.19803715 C-95.08409677 196.95111975 -95.08409677 196.95111975 -95.10546875 183.17578125 C-95.10701462 182.35501099 -95.10856049 181.53424072 -95.1101532 180.68859863 C-95.06524741 175.27291048 -94.57889677 169.96031369 -93.9296875 164.5859375 C-92.87694725 155.52485182 -92.70262402 146.50931973 -92.6796875 137.3984375 C-92.67469238 136.69897003 -92.66969727 135.99950256 -92.66455078 135.27883911 C-92.65281215 133.28488562 -92.65808393 131.29085408 -92.6640625 129.296875 C-92.66631836 128.13591309 -92.66857422 126.97495117 -92.67089844 125.77880859 C-92.64761591 122.88025121 -92.64761591 122.88025121 -94.9296875 121.0234375 C-97.97151643 120.77338364 -97.97151643 120.77338364 -100.9296875 121.0234375 C-102.95889268 123.05264268 -102.13897137 127.22856782 -102.17578125 130.01953125 C-102.2088129 131.7115919 -102.24202247 133.40364908 -102.27539062 135.09570312 C-102.32210521 137.74972099 -102.36632171 140.40373624 -102.40649414 143.05786133 C-103.00369485 180.68865793 -103.00369485 180.68865793 -107.9296875 189.0234375 C-110.03125 189.76953125 -110.03125 189.76953125 -111.9296875 190.0234375 C-114.38533205 185.696187 -115.31273639 182.57830716 -115.328125 177.61328125 C-115.33424805 176.38649658 -115.34037109 175.15971191 -115.34667969 173.89575195 C-115.33282227 172.59726318 -115.31896484 171.29877441 -115.3046875 169.9609375 C-115.30069946 169.29315277 -115.29671143 168.62536804 -115.29260254 167.93734741 C-115.21560965 156.92884482 -114.40426655 146.20014404 -112.36962891 135.36914062 C-111.94537485 133.10708017 -111.56633799 130.84098343 -111.19140625 128.5703125 C-107.09025843 105.39730464 -98.06741289 81.80690856 -88.73828125 60.2734375 C-87.84341219 57.78336707 -87.56314403 55.7280246 -87.4921875 53.0859375 C-87.45222656 52.27253906 -87.41226562 51.45914063 -87.37109375 50.62109375 C-88.18380753 46.84169052 -90.07770896 44.5015349 -92.9296875 42.0234375 C-96.75181416 39.65214256 -100.82603276 37.80943396 -104.89257812 35.90039062 C-110.44260086 33.16705927 -114.51025765 30.26490499 -117.9296875 25.0234375 C-118.82183402 22.34699793 -119.06508961 20.76959372 -119.0546875 18.0234375 C-119.05726563 17.3428125 -119.05984375 16.6621875 -119.0625 15.9609375 C-118.9296875 14.0234375 -118.9296875 14.0234375 -117.9296875 11.0234375 C-117.2696875 11.0234375 -116.6096875 11.0234375 -115.9296875 11.0234375 C-115.83171875 10.26804688 -115.73375 9.51265625 -115.6328125 8.734375 C-113.96996617 2.3231786 -106.66825286 -1.36371465 -101.3046875 -4.6015625 C-73.90835812 -18.84508737 -24.23853556 -20.9651642 0 0 Z " fill="#F0F0F0" transform="translate(354.9296875,211.9765625)"/>
<path d="M0 0 C3.44164997 2.80217847 5.96923338 5.55382938 7.93359375 9.5859375 C8.28164063 10.28203125 8.6296875 10.978125 8.98828125 11.6953125 C10.26502973 15.59941942 10.27572032 19.19047235 10.24609375 23.2734375 C10.2404541 24.0770874 10.23481445 24.8807373 10.22900391 25.70874023 C10.02487859 35.70987028 7.61814506 43.91613487 0.93359375 51.5859375 C-7.50082715 59.02273873 -18.52190388 58.8874051 -29.19140625 58.7109375 C-30.24328125 58.70191406 -31.29515625 58.69289063 -32.37890625 58.68359375 C-34.94165503 58.66029603 -37.50390137 58.62758862 -40.06640625 58.5859375 C-43.42980432 51.59190328 -45.82758973 44.44488073 -48.06640625 37.0234375 C-48.41525879 35.88261719 -48.76411133 34.74179688 -49.12353516 33.56640625 C-51.44616195 25.88729607 -53.5180438 18.19360597 -55.27734375 10.3671875 C-55.8543601 7.47314064 -55.8543601 7.47314064 -58.06640625 5.5859375 C-61.10823518 5.33588364 -61.10823518 5.33588364 -64.06640625 5.5859375 C-65.47352932 6.77168595 -65.47352932 6.77168595 -65.27734375 10.15234375 C-65.21978912 14.60687375 -64.1491427 18.34581543 -62.69140625 22.5234375 C-62.22511711 23.9300818 -61.76154839 25.33763097 -61.30078125 26.74609375 C-61.08228516 27.41141113 -60.86378906 28.07672852 -60.63867188 28.76220703 C-59.73674462 31.63652298 -59.12722253 34.54763297 -58.52734375 37.49609375 C-57.47246601 42.27880216 -56.29226206 47.29621398 -53.97265625 51.62890625 C-53.06640625 53.5859375 -53.06640625 53.5859375 -53.06640625 57.5859375 C-54.04946243 57.59180374 -55.03251862 57.59766998 -56.04536438 57.60371399 C-65.30104613 57.66087919 -74.55649152 57.73360803 -83.81193256 57.82165241 C-88.57048672 57.86641686 -93.32895405 57.90565944 -98.08764648 57.93237305 C-102.67840921 57.95834562 -107.26883891 57.9987047 -111.85939598 58.04912376 C-113.61246797 58.06583353 -115.36559762 58.07732215 -117.11873817 58.08355141 C-119.57080789 58.09314809 -122.02201767 58.1211527 -124.47387695 58.15356445 C-125.20179947 58.15212936 -125.92972198 58.15069427 -126.67970276 58.1492157 C-129.54924875 58.20300834 -131.57942445 58.25681037 -133.99528503 59.88957214 C-135.80081119 62.74903564 -135.91871281 65.97993132 -136.25390625 69.2734375 C-136.37668945 70.3262793 -136.37668945 70.3262793 -136.50195312 71.40039062 C-136.70169898 73.12760476 -136.88560613 74.85663753 -137.06640625 76.5859375 C-138.23429688 76.369375 -139.4021875 76.1528125 -140.60546875 75.9296875 C-164.59254465 71.81601493 -188.29477658 72.53186187 -212.06640625 77.5859375 C-212.164375 76.69390625 -212.26234375 75.801875 -212.36328125 74.8828125 C-212.58757812 73.12710938 -212.58757812 73.12710938 -212.81640625 71.3359375 C-213.02523437 69.59570312 -213.02523437 69.59570312 -213.23828125 67.8203125 C-214.22037086 63.98460403 -214.8655828 62.89345763 -218.06640625 60.5859375 C-221.17499457 60.01716452 -224.23514581 60.09772889 -227.38671875 60.16015625 C-228.30892715 60.16294586 -229.23113556 60.16573547 -230.18128967 60.16860962 C-233.18520073 60.18330513 -236.18782438 60.22742349 -239.19140625 60.2734375 C-241.27123001 60.29241559 -243.35106467 60.31023338 -245.4309082 60.3269043 C-251.31006913 60.38203901 -257.18801936 60.4773705 -263.06640625 60.5859375 C-264.3827002 60.60817383 -265.69899414 60.63041016 -267.05517578 60.65332031 C-283.5355419 60.98043764 -299.97354268 62.29739935 -316.40307617 63.56958008 C-325.30689719 64.24939415 -334.12778686 64.82152373 -343.06640625 64.5859375 C-337.6581796 58.60584398 -328.8643632 59.23874885 -321.3359375 58.83203125 C-318.1984577 58.66562223 -318.1984577 58.66562223 -315.68994141 58.09741211 C-313.04826296 57.58240035 -310.50454639 57.33553904 -307.8203125 57.15625 C-285.89713688 56.52281701 -285.89713688 56.52281701 -266.06640625 48.5859375 C-261.98487298 42.99922341 -262.72722516 36.81489867 -262.87890625 30.2109375 C-262.89244141 29.09332031 -262.90597656 27.97570312 -262.91992188 26.82421875 C-262.95513461 24.07762539 -263.00438529 21.33203461 -263.06640625 18.5859375 C-236.73409062 14.83576983 -210.84209562 14.46247035 -184.29248047 14.62231445 C-183.29726883 14.62664993 -182.30205719 14.63098541 -181.27668762 14.63545227 C-179.37780925 14.64397281 -177.47894394 14.65660139 -175.5801239 14.67375183 C-173.40870345 14.68210509 -171.23718123 14.63953357 -169.06640625 14.5859375 C-167.73895459 13.47335159 -167.73895459 13.47335159 -167.81640625 10.6484375 C-167.89890625 9.6378125 -167.98140625 8.6271875 -168.06640625 7.5859375 C-174.01016091 3.62343439 -181.9921267 4.4351722 -188.95703125 4.453125 C-189.7755809 4.45162445 -190.59413055 4.4501239 -191.43748474 4.44857788 C-194.0638435 4.44624515 -196.69006142 4.45243034 -199.31640625 4.4609375 C-200.2141275 4.46315308 -201.11184875 4.46536865 -202.03677368 4.46765137 C-228.50032198 4.51339703 -228.50032198 4.51339703 -254.64208984 8.20507812 C-261.88536504 9.69328972 -268.66214964 10.03392614 -276.06640625 9.5859375 C-276.56140625 8.1009375 -276.56140625 8.1009375 -277.06640625 6.5859375 C-267.53140764 0.44116062 -257.31013713 -0.9063516 -246.15625 -1.5871582 C-244.94041733 -1.66693814 -243.72458466 -1.74671808 -242.47190857 -1.8289156 C-229.191735 -2.63284006 -215.92864583 -2.68563871 -202.62890625 -2.64453125 C-200.00073265 -2.64333305 -197.37255862 -2.64288763 -194.74438477 -2.6431427 C-189.28561949 -2.64221805 -183.82691116 -2.63370167 -178.36816406 -2.61987305 C-172.14470652 -2.60416085 -165.92131094 -2.59887579 -159.69783497 -2.5996086 C-153.59817915 -2.60022871 -147.49854565 -2.59492083 -141.39889526 -2.58681679 C-138.85423904 -2.58369032 -136.30958113 -2.58167727 -133.7649231 -2.58092308 C-116.17785307 -2.56999496 -98.63824334 -2.13012773 -81.06640625 -1.4140625 C-78.93812832 -1.32873943 -76.80979265 -1.24484222 -74.68139648 -1.16252136 C-73.30454933 -1.10847279 -73.30454933 -1.10847279 -71.89988708 -1.05333233 C-62.59629112 -0.78340011 -55.5516071 -1.93328273 -47.16015625 -6.00390625 C-33.42211288 -12.26581743 -12.2338557 -8.37175003 0 0 Z " fill="#E9E9E9" transform="translate(476.06640625,114.4140625)"/>
<path d="M0 0 C3.44164997 2.80217847 5.96923338 5.55382938 7.93359375 9.5859375 C8.28164063 10.28203125 8.6296875 10.978125 8.98828125 11.6953125 C10.26502973 15.59941942 10.27572032 19.19047235 10.24609375 23.2734375 C10.2404541 24.0770874 10.23481445 24.8807373 10.22900391 25.70874023 C10.02487859 35.70987028 7.61814506 43.91613487 0.93359375 51.5859375 C-7.50082715 59.02273873 -18.52190388 58.8874051 -29.19140625 58.7109375 C-30.24328125 58.70191406 -31.29515625 58.69289063 -32.37890625 58.68359375 C-34.94165503 58.66029603 -37.50390137 58.62758862 -40.06640625 58.5859375 C-43.42980432 51.59190328 -45.82758973 44.44488073 -48.06640625 37.0234375 C-48.58968506 35.31220703 -48.58968506 35.31220703 -49.12353516 33.56640625 C-51.44616195 25.88729607 -53.5180438 18.19360597 -55.27734375 10.3671875 C-55.8543601 7.47314064 -55.8543601 7.47314064 -58.06640625 5.5859375 C-62.21150058 5.29991588 -62.21150058 5.29991588 -66.06640625 6.5859375 C-66.06640625 5.5959375 -66.06640625 4.6059375 -66.06640625 3.5859375 C-64.74640625 3.2559375 -63.42640625 2.9259375 -62.06640625 2.5859375 C-62.06640625 1.9259375 -62.06640625 1.2659375 -62.06640625 0.5859375 C-63.71640625 0.5859375 -65.36640625 0.5859375 -67.06640625 0.5859375 C-67.06640625 0.2559375 -67.06640625 -0.0740625 -67.06640625 -0.4140625 C-66.4115625 -0.50042969 -65.75671875 -0.58679688 -65.08203125 -0.67578125 C-58.51614053 -1.68663166 -52.92403918 -3.51907983 -46.890625 -6.29296875 C-32.84494299 -11.86850227 -12.36366999 -8.46058324 0 0 Z " fill="#E9E9E9" transform="translate(476.06640625,114.4140625)"/>
<path d="M0 0 C0.33 0 0.66 0 1 0 C1.03867187 1.69769531 1.03867187 1.69769531 1.078125 3.4296875 C1.13439626 4.91149743 1.19174382 6.39326677 1.25 7.875 C1.26417969 8.62136719 1.27835938 9.36773437 1.29296875 10.13671875 C1.35986341 12.57138381 1.35986341 12.57138381 2 16 C3.90628782 17.60337399 3.90628782 17.60337399 6 18 C5.34 18.66 4.68 19.32 4 20 C3.855625 20.928125 3.71125 21.85625 3.5625 22.8125 C2.95855351 26.23486342 1.8237163 28.08205392 0 31 C-0.71143088 32.98451771 -1.38991336 34.98202112 -2 37 C-0.68 36.67 0.64 36.34 2 36 C-0.475 39.465 -0.475 39.465 -3 43 C-2.34 43.33 -1.68 43.66 -1 44 C-4.43099224 48.71761433 -8.57544069 52.26141888 -13 56 C-13.54140625 56.47953125 -14.0828125 56.9590625 -14.640625 57.453125 C-17.87882443 60.28228871 -21.09683359 62.21811968 -25 64 C-26.0209375 64.556875 -26.0209375 64.556875 -27.0625 65.125 C-30.41700752 66.63993888 -33.01229348 67.23516822 -36.625 66.375 C-37.800625 66.189375 -37.800625 66.189375 -39 66 C-40.8354799 67.33378575 -40.8354799 67.33378575 -42 69 C-44 68 -46 67 -48 66 C-51.282619 65.92921576 -54.55327789 66.00321947 -57.8359375 66.0625 C-60.46650699 66.01053813 -62.51248727 65.78424047 -65 65 C-65 65.66 -65 66.32 -65 67 C-59.555 67.495 -59.555 67.495 -54 68 C-54 68.33 -54 68.66 -54 69 C-55.14597656 68.979375 -56.29195313 68.95875 -57.47265625 68.9375 C-65.91501677 68.77684246 -65.91501677 68.77684246 -73.6171875 71.63671875 C-76.98737167 75.43360005 -78.49977266 79.17784068 -80 84 C-81.64694485 85.68615782 -83.31126121 87.35570171 -85 89 C-85 89.99 -85 90.98 -85 92 C-86.43359375 93.296875 -86.43359375 93.296875 -88.4375 94.75 C-92.64850373 98.23782598 -95.24773012 102.16049666 -98 106.8125 C-98.59639282 107.81845215 -98.59639282 107.81845215 -99.20483398 108.84472656 C-101.29647824 112.20507886 -101.29647824 112.20507886 -102 116 C-100.35 114.68 -98.7 113.36 -97 112 C-98.1754142 116.84858358 -101.0617437 118.98892891 -104.71484375 122.05859375 C-111.99817239 128.24631056 -117.49877798 134.54476334 -122 143 C-120.02 142.01 -120.02 142.01 -118 141 C-116.515 141.99 -116.515 141.99 -115 143 C-123.88671875 151.88671875 -123.88671875 151.88671875 -125.48144531 153.47998047 C-126.85440576 154.85426532 -128.22242231 156.23348495 -129.58984375 157.61328125 C-131.19315069 159.20099688 -132.82777521 160.75771274 -134.4921875 162.28125 C-135.27851563 163.0134375 -136.06484375 163.745625 -136.875 164.5 C-137.67679687 165.2321875 -138.47859375 165.964375 -139.3046875 166.71875 C-141.32144545 168.88333159 -141.32144545 168.88333159 -140.671875 171.62109375 C-140.33929688 172.79865234 -140.33929688 172.79865234 -140 174 C-141.375 176.5625 -141.375 176.5625 -143 179 C-144.17221888 182.439336 -144.08346576 185.67834279 -144.03125 189.2890625 C-143.97530145 196.99597474 -144.20985256 204.67433019 -144.5 212.375 C-144.54840775 213.70832498 -144.59658574 215.04165832 -144.64453125 216.375 C-144.76077844 219.58342236 -144.8792971 222.79174272 -145 226 C-145.33 226 -145.66 226 -146 226 C-146.18623207 217.95876535 -146.32793843 209.91844699 -146.41449738 201.87558174 C-146.45606499 198.13990675 -146.51233982 194.40571808 -146.60351562 190.67089844 C-146.69112327 187.05919924 -146.73841235 183.44891939 -146.75901794 179.83623886 C-146.77368038 178.46548003 -146.80231315 177.09478973 -146.84584045 175.72464371 C-147.1176351 166.80576097 -146.12091051 161.58363132 -139.95675659 154.95439148 C-139.31102692 154.30944229 -138.66529724 153.6644931 -138 153 C-136.81277344 151.55173828 -136.81277344 151.55173828 -135.6015625 150.07421875 C-134.94929688 149.28660156 -134.29703125 148.49898437 -133.625 147.6875 C-114.25458585 124.03100793 -97.4925594 98.92671849 -83.6875 71.625 C-83.38626221 71.03195068 -83.08502441 70.43890137 -82.7746582 69.82788086 C-79.88800211 64.01250303 -77.45702485 58.00661381 -75 52 C-73.9169458 51.98541748 -72.8338916 51.97083496 -71.71801758 51.95581055 C-67.63795565 51.89713402 -63.5584064 51.81991654 -59.47875977 51.73754883 C-57.72461365 51.70462144 -55.97036975 51.67649331 -54.21606445 51.65356445 C-31.73696842 51.43709549 -31.73696842 51.43709549 -12.19140625 41.40234375 C-1.6888067 29.90448539 -0.54633065 14.84512258 0 0 Z M-143 171 C-143.33 171.66 -143.66 172.32 -144 173 C-143.34 173 -142.68 173 -142 173 C-142.33 172.34 -142.66 171.68 -143 171 Z " fill="#BCBDBF" transform="translate(497,132)"/>
<path d="M0 0 C3.63 0 7.26 0 11 0 C10.2116617 3.94169149 9.48683646 6.4447854 7.8125 9.95703125 C7.14263062 11.36625854 7.14263062 11.36625854 6.45922852 12.80395508 C5.97768311 13.7967749 5.4961377 14.78959473 5 15.8125 C4.50234131 16.84205811 4.00468262 17.87161621 3.49194336 18.93237305 C-9.69140983 45.9545587 -26.83954132 71.64021855 -47 94 C-47.33 94 -47.66 94 -48 94 C-49.93972694 81.08506592 -49.93972694 81.08506592 -46.85302734 76.17578125 C-44.27485824 73.22930228 -41.33862886 70.72755133 -38.3984375 68.15234375 C-33.249877 63.60591264 -30.36155876 57.9387538 -27 52 C-25.84275923 50.22299251 -24.67629952 48.45194928 -23.5 46.6875 C-19.08342425 39.75000236 -15.56154601 32.39781182 -12 25 C-11.49645996 23.95618164 -10.99291992 22.91236328 -10.47412109 21.83691406 C-6.96869567 14.56463463 -3.47987436 7.28453699 0 0 Z " fill="#CBC9C7" transform="translate(399,183)"/>
<path d="M0 0 C0.33 0 0.66 0 1 0 C3.00256382 6.09413305 3.18690361 10.08568602 0.7265625 16.0546875 C-0.20753931 18.55566976 -0.04183218 20.62351035 0.25 23.25 C-0.3219671 29.54163806 -4.55222723 33.92287496 -9 38 C-8.505 38.495 -8.505 38.495 -8 39 C-9.93586217 46.420805 -12.12875772 53.96299033 -17 60 C-16.34 60.66 -15.68 61.32 -15 62 C-14.01 61.505 -14.01 61.505 -13 61 C-13.350625 61.9075 -13.70125 62.815 -14.0625 63.75 C-14.98515223 66.94852773 -15.0074052 67.97778441 -14 71 C-14.495 71.495 -14.495 71.495 -15 72 C-15.13610893 74.67221464 -15.21082482 77.3219671 -15.24609375 79.99609375 C-15.2791254 81.6881544 -15.31233497 83.38021158 -15.34570312 85.07226562 C-15.39241771 87.72628349 -15.43663421 90.38029874 -15.47680664 93.03442383 C-16.07400735 130.66522043 -16.07400735 130.66522043 -21 139 C-23.1015625 139.74609375 -23.1015625 139.74609375 -25 140 C-27.45564455 135.6727495 -28.38304889 132.55486966 -28.3984375 127.58984375 C-28.40456055 126.36305908 -28.41068359 125.13627441 -28.41699219 123.87231445 C-28.40313477 122.57382568 -28.38927734 121.27533691 -28.375 119.9375 C-28.37101196 119.26971527 -28.36702393 118.60193054 -28.36291504 117.91390991 C-28.28592215 106.90540732 -27.47457905 96.17670654 -25.43994141 85.34570312 C-25.01568735 83.08364267 -24.63665049 80.81754593 -24.26171875 78.546875 C-20.14443231 55.2826779 -10.99461334 31.90117193 -1.8203125 10.2109375 C-0.9959861 7.98918157 -0.61414517 6.03909416 -0.375 3.6875 C-0.25125 2.470625 -0.1275 1.25375 0 0 Z " fill="#D0D0CF" transform="translate(268,262)"/>
<path d="M0 0 C11.88 0 23.76 0 36 0 C34.68224678 6.5887661 31.92824093 12.17084051 29.125 18.25 C28.57657458 19.47124267 28.02839503 20.6925958 27.48046875 21.9140625 C26.95324219 23.06132812 26.42601562 24.20859375 25.8828125 25.390625 C25.40215332 26.44282227 24.92149414 27.49501953 24.42626953 28.57910156 C23 31 23 31 20 32 C19.64808594 31.34773438 19.29617188 30.69546875 18.93359375 30.0234375 C14.04082065 21.36207938 8.70622111 16.61962753 0 12 C0 8.04 0 4.08 0 0 Z " fill="#C9C8C8" transform="translate(350,184)"/>
<path d="M0 0 C1.0828125 -0.00257812 2.165625 -0.00515625 3.28125 -0.0078125 C6.43390353 0.12227272 9.40298066 0.5373126 12.5 1.125 C12.17 2.115 11.84 3.105 11.5 4.125 C11.995 4.49625 12.49 4.8675 13 5.25 C14.5 7.125 14.5 7.125 15 10.0625 C14.5 13.125 14.5 13.125 12.375 15.5 C9.06648796 17.37002854 7.2413523 17.62384697 3.5 17.125 C1.5 15.125 1.5 15.125 1.375 11.5 C1.41625 10.38625 1.4575 9.2725 1.5 8.125 C0.88253906 8.4859375 0.26507813 8.846875 -0.37109375 9.21875 C-5.72918805 12.15469208 -9.43341964 13.52317467 -15.53125 13.09375 C-18.38110832 13.13898585 -20.13845433 14.64059987 -22.5 16.125 C-24.4375 15.3125 -24.4375 15.3125 -26.5 14.125 C-30.6507429 13.83758858 -30.6507429 13.83758858 -34.5 15.125 C-34.5 14.135 -34.5 13.145 -34.5 12.125 C-33.18 11.795 -31.86 11.465 -30.5 11.125 C-30.5 10.465 -30.5 9.805 -30.5 9.125 C-32.15 9.125 -33.8 9.125 -35.5 9.125 C-35.5 8.795 -35.5 8.465 -35.5 8.125 C-34.84515625 8.03863281 -34.1903125 7.95226562 -33.515625 7.86328125 C-26.94973428 6.85243084 -21.35763293 5.01998267 -15.32421875 2.24609375 C-10.26590014 0.23815815 -5.3992099 -0.01285526 0 0 Z " fill="#B7B6B6" transform="translate(444.5,105.875)"/>
<path d="M0 0 C0 2.97 0 5.94 0 9 C-17.34315616 10.08273885 -34.63160391 10.10970224 -52 10 C-51.67 9.01 -51.34 8.02 -51 7 C-42.86209253 3.81420583 -33.54331837 3.01516195 -24.9375 1.8125 C-23.15375977 1.54663086 -23.15375977 1.54663086 -21.33398438 1.27539062 C-14.16956228 0.25639814 -7.23482575 -0.24057708 0 0 Z " fill="#BBB9B9" transform="translate(188,119)"/>
<path d="M0 0 C-0.33 0.66 -0.66 1.32 -1 2 C0.20809326 1.67475342 1.41618652 1.34950684 2.66088867 1.0144043 C8.90210121 -0.36455044 15.06010594 -0.26828097 21.42578125 -0.23046875 C23.32350533 -0.22978142 23.32350533 -0.22978142 25.25956726 -0.2290802 C27.91968628 -0.22607186 30.57945049 -0.21932204 33.23950195 -0.20581055 C36.64337188 -0.18873547 40.04709341 -0.18499937 43.45100117 -0.18575573 C46.71344248 -0.18541836 49.97585281 -0.17658424 53.23828125 -0.16796875 C55.0679821 -0.16629951 55.0679821 -0.16629951 56.93464661 -0.16459656 C58.632425 -0.15502678 58.632425 -0.15502678 60.36450195 -0.14526367 C61.35883743 -0.14145187 62.35317291 -0.13764008 63.37763977 -0.13371277 C65.73943402 -0.01328612 67.74151532 0.32713306 70 1 C70 2.32 70 3.64 70 5 C43.93 5 17.86 5 -9 5 C-8.67 4.01 -8.34 3.02 -8 2 C-8 1.01 -8 0.02 -8 -1 C-4.59745511 -2.2151946 -3.06748874 -1.86240388 0 0 Z " fill="#DFDFE1" transform="translate(326,123)"/>
<path d="M0 0 C1.32 0.66 2.64 1.32 4 2 C-4.88671875 10.88671875 -4.88671875 10.88671875 -6.48144531 12.47998047 C-7.85440576 13.85426532 -9.22242231 15.23348495 -10.58984375 16.61328125 C-12.19315069 18.20099688 -13.82777521 19.75771274 -15.4921875 21.28125 C-16.27851563 22.0134375 -17.06484375 22.745625 -17.875 23.5 C-18.67679687 24.2321875 -19.47859375 24.964375 -20.3046875 25.71875 C-22.32144545 27.88333159 -22.32144545 27.88333159 -21.671875 30.62109375 C-21.33929688 31.79865234 -21.33929688 31.79865234 -21 33 C-22.375 35.5625 -22.375 35.5625 -24 38 C-25.17221888 41.439336 -25.08346576 44.67834279 -25.03125 48.2890625 C-24.97530145 55.99597474 -25.20985256 63.67433019 -25.5 71.375 C-25.54840775 72.70832498 -25.59658574 74.04165832 -25.64453125 75.375 C-25.76077844 78.58342236 -25.8792971 81.79174272 -26 85 C-26.33 85 -26.66 85 -27 85 C-27.23311519 77.62843252 -27.41007849 70.25767623 -27.51812172 62.88315105 C-27.57001779 59.4574664 -27.64021616 56.03432698 -27.75439453 52.61010742 C-28.58866462 26.93260291 -28.58866462 26.93260291 -22.16796875 19.921875 C-20.47402448 18.5775875 -18.75369779 17.26534585 -17 16 C-15.12495188 13.74337019 -15.12495188 13.74337019 -13.6875 11.5625 C-9.99565775 6.48492424 -5.19463381 3.38255225 0 0 Z M-24 30 C-24.33 30.66 -24.66 31.32 -25 32 C-24.34 32 -23.68 32 -23 32 C-23.33 31.34 -23.66 30.68 -24 30 Z " fill="#C4C4C5" transform="translate(378,273)"/>
<path d="M0 0 C0 0.66 0 1.32 0 2 C1.65 1.67 3.3 1.34 5 1 C5 0.34 5 -0.32 5 -1 C7.875 -1.625 7.875 -1.625 11 -2 C11.66 -1.34 12.32 -0.68 13 0 C9.375 3 9.375 3 6 3 C4.31201173 4.43750191 4.31201173 4.43750191 3 6 C1 5 -1 4 -3 3 C-6.282619 2.92921576 -9.55327789 3.00321947 -12.8359375 3.0625 C-15.46650699 3.01053813 -17.51248727 2.78424047 -20 2 C-20 2.66 -20 3.32 -20 4 C-14.555 4.495 -14.555 4.495 -9 5 C-9 5.33 -9 5.66 -9 6 C-10.14597656 5.979375 -11.29195313 5.95875 -12.47265625 5.9375 C-20.91501677 5.77684246 -20.91501677 5.77684246 -28.6171875 8.63671875 C-31.98737167 12.43360005 -33.49977266 16.17784068 -35 21 C-36.64694485 22.68615782 -38.31126121 24.35570171 -40 26 C-40 26.99 -40 27.98 -40 29 C-41.53125 30.38671875 -41.53125 30.38671875 -43.5 31.6875 C-44.1496875 32.12449219 -44.799375 32.56148437 -45.46875 33.01171875 C-46.22671875 33.50091797 -46.22671875 33.50091797 -47 34 C-45.12248827 27.63732136 -42.63380239 22.21946532 -39.3046875 16.48046875 C-37.93169703 14.11555794 -37.93169703 14.11555794 -37.4609375 11.76953125 C-37 10 -37 10 -34.75 8.5 C-33.8425 8.005 -32.935 7.51 -32 7 C-28.44768577 4.47024016 -28.44768577 4.47024016 -26 1 C-20.39 1 -14.78 1 -9 1 C-9 0.34 -9 -0.32 -9 -1 C-5.23375329 -2.25541557 -3.62811066 -1.37061958 0 0 Z " fill="#DADBDC" transform="translate(452,195)"/>
<path d="M0 0 C0.33 0 0.66 0 1 0 C3.00256382 6.09413305 3.18690361 10.08568602 0.7265625 16.0546875 C-0.20753931 18.55566976 -0.04183218 20.62351035 0.25 23.25 C-0.3219671 29.54163806 -4.55222723 33.92287496 -9 38 C-8.67 38.33 -8.34 38.66 -8 39 C-12.21318776 55.15055308 -12.21318776 55.15055308 -17 59 C-17.66 59 -18.32 59 -19 59 C-16.62486172 49.0770184 -13.02878311 39.6532551 -9.4375 30.125 C-8.84136433 28.53141174 -8.24565823 26.93766272 -7.65039062 25.34375 C-3.40325665 13.99117269 -3.40325665 13.99117269 -1.8425293 10.1550293 C-0.98032677 7.94967963 -0.61388757 6.0365611 -0.375 3.6875 C-0.25125 2.470625 -0.1275 1.25375 0 0 Z " fill="#CDCDCE" transform="translate(268,262)"/>
<path d="M0 0 C3 0 6 0 9 0 C9.66515625 -0.01160156 10.3303125 -0.02320313 11.015625 -0.03515625 C11.75296875 -0.04417969 12.4903125 -0.05320313 13.25 -0.0625 C14.34054688 -0.07990234 14.34054688 -0.07990234 15.453125 -0.09765625 C18 0 18 0 21.20629883 0.5 C24.9415087 0.992291 28.48118573 1.11381465 32.24609375 1.09765625 C32.90207047 1.0962413 33.55804718 1.09482635 34.23390198 1.09336853 C36.30181702 1.08783031 38.36961842 1.07529002 40.4375 1.0625 C41.85090988 1.05747699 43.26432148 1.0529155 44.67773438 1.04882812 C48.11852568 1.03788126 51.55925172 1.02066038 55 1 C52.33105469 4.90722656 52.33105469 4.90722656 49.3515625 5.7421875 C45.35264121 6.04979683 41.38299779 6.14778196 37.375 6.125 C36.53485352 6.12306641 35.69470703 6.12113281 34.82910156 6.11914062 C22.54671019 6.0399845 10.27105687 5.49999105 -2 5 C-1.34 3.35 -0.68 1.7 0 0 Z " fill="#DEDFE1" transform="translate(241,139)"/>
<path d="M0 0 C0.66 0 1.32 0 2 0 C2.495 1.485 2.495 1.485 3 3 C3.99 3 4.98 3 6 3 C4.35 4.98 2.7 6.96 1 9 C1.66 9.33 2.32 9.66 3 10 C-0.43099224 14.71761433 -4.57544069 18.26141888 -9 22 C-9.81210937 22.71929687 -9.81210937 22.71929687 -10.640625 23.453125 C-13.87882443 26.28228871 -17.09683359 28.21811968 -21 30 C-21.680625 30.37125 -22.36125 30.7425 -23.0625 31.125 C-25.34149835 32.15422506 -27.54053584 32.59008931 -30 33 C-30 32.34 -30 31.68 -30 31 C-29.34 31 -28.68 31 -28 31 C-27.67 30.01 -27.34 29.02 -27 28 C-25.32957686 27.00106209 -23.65283555 26.01036796 -21.93847656 25.08886719 C-18.87731434 23.36937304 -16.14862741 21.26825754 -13.375 19.125 C-12.8284375 18.71636719 -12.281875 18.30773437 -11.71875 17.88671875 C-6.82695117 14.13009812 -1.88860753 9.95811243 -0.6875 3.625 C-0.460625 2.42875 -0.23375 1.2325 0 0 Z " fill="#D6D7D8" transform="translate(493,166)"/>
<path d="M0 0 C0.66 0.66 1.32 1.32 2 2 C-13.19669524 22.49368207 -13.19669524 22.49368207 -19 29 C-19.33 29 -19.66 29 -20 29 C-20.62608696 20.04347826 -20.62608696 20.04347826 -18.125 15.875 C-16 14 -16 14 -14 14 C-13.79632813 13.44828125 -13.59265625 12.8965625 -13.3828125 12.328125 C-11.4709694 9.10931571 -8.76087536 7.05334367 -5.875 4.75 C-5.31167969 4.29109375 -4.74835938 3.8321875 -4.16796875 3.359375 C-2.78377401 2.23325047 -1.39256589 1.11575615 0 0 Z " fill="#D2D0CE" transform="translate(371,248)"/>
<path d="M0 0 C1.55074219 -0.00580078 1.55074219 -0.00580078 3.1328125 -0.01171875 C9.56538731 -0.00361727 15.86446271 0.34588636 22.25 1.125 C21.03735352 3.1027832 21.03735352 3.1027832 19.25 5.125 C17.10522461 5.56323242 17.10522461 5.56323242 14.65234375 5.48046875 C13.76869141 5.46306641 12.88503906 5.44566406 11.97460938 5.42773438 C10.59499023 5.37069336 10.59499023 5.37069336 9.1875 5.3125 C7.36339165 5.26030988 5.53916862 5.21194444 3.71484375 5.16796875 C2.906521 5.13727295 2.09819824 5.10657715 1.26538086 5.07495117 C-0.82203527 4.98398809 -0.82203527 4.98398809 -2.75 6.125 C-3.7709375 5.9084375 -3.7709375 5.9084375 -4.8125 5.6875 C-8.80451105 4.92307235 -12.69832654 5.04555542 -16.75 5.125 C-16.42 4.465 -16.09 3.805 -15.75 3.125 C-16.41 2.465 -17.07 1.805 -17.75 1.125 C-11.85222828 -0.15624006 -6.00212175 -0.02212084 0 0 Z " fill="#EEF0F1" transform="translate(274.75,143.875)"/>
<path d="M0 0 C1.32 0 2.64 0 4 0 C4.33 0.99 4.66 1.98 5 3 C8.50294871 4.71567661 8.50294871 4.71567661 12 6 C12 6.66 12 7.32 12 8 C8.11411326 8.79303811 5.52264701 9.15778023 1.6875 8 C-4.51833846 6.31706076 -10.79663798 7.55254886 -17 9 C-17.33 8.34 -17.66 7.68 -18 7 C-15.9927092 3.9890638 -15.16115776 3.36983503 -12 2 C-12 1.34 -12 0.68 -12 0 C-7.72202932 -1.16671928 -4.34248508 -0.71058847 0 0 Z " fill="#E8E7E7" transform="translate(307,208)"/>
<path d="M0 0 C3.99068323 1.29697205 3.99068323 1.29697205 5.5 3.8125 C5.16666667 10.14583333 5.16666667 10.14583333 2.5 12.8125 C-0.5 13.125 -0.5 13.125 -3.5 12.8125 C-6.22286806 8.72819792 -5.88524534 6.66659123 -5.5 1.8125 C-2.5 -0.1875 -2.5 -0.1875 0 0 Z " fill="#111110" transform="translate(268.5,214.1875)"/>
<path d="M0 0 C2.35210784 2.11689705 2.91810953 3.44041515 3.375 6.5625 C3 9 3 9 1.875 10.8125 C-0.90003811 12.57002414 -2.78929745 12.46822746 -6 12 C-8.35210784 9.88310295 -8.91810953 8.55958485 -9.375 5.4375 C-9 3 -9 3 -7.875 1.1875 C-5.09996189 -0.57002414 -3.21070255 -0.46822746 0 0 Z " fill="#0F0E0E" transform="translate(339,213)"/>
<path d="M0 0 C2 2 2 2 2.375 4.9375 C2 8 2 8 0.375 9.875 C-2.62505385 11.29607814 -4.71697841 11.35685017 -8 11 C-10 9 -10 9 -10.3125 5.5 C-10.209375 4.345 -10.10625 3.19 -10 2 C-6.32653229 -0.44897847 -4.33643601 -0.31537716 0 0 Z " fill="#0D0D0D" transform="translate(456,112)"/>
<path d="M0 0 C0.66 0.66 1.32 1.32 2 2 C1.75 5.5625 1.75 5.5625 1 9 C-2.01324195 10.50662097 -4.68286377 10.17770373 -8 10 C-10 8 -10 8 -10.375 5.0625 C-10 2 -10 2 -8.375 0.0625 C-5.18435542 -1.36489363 -3.32060787 -0.93843266 0 0 Z " fill="#111011" transform="translate(467,155)"/>
<path d="M0 0 C1.30705582 3.92116745 0.57758765 5.19944793 -1 9 C-3.4529358 13.63812157 -5.1544578 16.75595792 -10 19 C-11.18330183 20.86644906 -11.18330183 20.86644906 -12 23 C-12.66666667 24.33333333 -13.33333333 25.66666667 -14 27 C-14.66 27 -15.32 27 -16 27 C-16 27.66 -16 28.32 -16 29 C-17.609375 30.55078125 -17.609375 30.55078125 -19.75 32.3125 C-22.90170177 34.98362313 -25.55769329 37.64182828 -28 41 C-27.64312416 35.9488342 -24.99986527 33.71103231 -21.4375 30.5 C-15.22445481 24.60741424 -11.24551849 18.45465774 -7 11 C-5.67884172 8.88816764 -4.34623544 6.78343542 -3 4.6875 C-2.13375 3.33205078 -2.13375 3.33205078 -1.25 1.94921875 C-0.8375 1.30597656 -0.425 0.66273438 0 0 Z " fill="#C3C2C2" transform="translate(379,224)"/>
<path d="M0 0 C0.99 0.66 1.98 1.32 3 2 C1.41779413 2.96019364 -0.16581331 3.91807798 -1.75 4.875 C-2.63171875 5.40867188 -3.5134375 5.94234375 -4.421875 6.4921875 C-8.96891192 9.15151515 -8.96891192 9.15151515 -11 10 C-13.125 9.1875 -13.125 9.1875 -15 8 C-15.66 7.67 -16.32 7.34 -17 7 C-17.763125 7.33 -18.52625 7.66 -19.3125 8 C-22.38456102 9.14309247 -23.89991179 8.88573949 -27 8 C-26.67 6.68 -26.34 5.36 -26 4 C-24.1746875 4.0309375 -24.1746875 4.0309375 -22.3125 4.0625 C-19.08022678 4.06824116 -16.15065259 3.78766315 -13 3 C-13.33 2.34 -13.66 1.68 -14 1 C-12.35 1 -10.7 1 -9 1 C-9.33 2.32 -9.66 3.64 -10 5 C-7.23723823 4.47731534 -4.6739124 3.89130413 -2 3 C-2 2.34 -2 1.68 -2 1 C-1.34 0.67 -0.68 0.34 0 0 Z " fill="#DDDCDC" transform="translate(250,194)"/>
<path d="M0 0 C-0.57344937 2.86724686 -0.8614515 3.8614515 -3 6 C-5.56916657 6.30599063 -8.04758384 6.51087087 -10.625 6.625 C-11.68460938 6.68300781 -11.68460938 6.68300781 -12.765625 6.7421875 C-14.50998524 6.83647724 -16.25495691 6.91932891 -18 7 C-18.66 5.35 -19.32 3.7 -20 2 C-16.11090149 0.70363383 -12.66180603 0.97501492 -8.59375 1.0625 C-5.52841225 0.98863644 -3.09344219 0 0 0 Z " fill="#D9DADB" transform="translate(165,149)"/>
<path d="M0 0 C1.32 0.33 2.64 0.66 4 1 C3.01 2.485 3.01 2.485 2 4 C2.33 4.33 2.66 4.66 3 5 C-1.21318776 21.15055308 -1.21318776 21.15055308 -6 25 C-6.66 25 -7.32 25 -8 25 C-5.85406445 16.45115106 -3.0505873 8.25949525 0 0 Z " fill="#B9B9B9" transform="translate(257,296)"/>
<path d="M0 0 C1.32 0.66 2.64 1.32 4 2 C-4.88671875 10.88671875 -4.88671875 10.88671875 -6.47412109 12.46630859 C-7.90373302 13.90324014 -9.30645617 15.36678315 -10.70703125 16.83203125 C-13 19 -13 19 -16 20 C-14.46386447 16.43485124 -12.3161548 13.96129644 -9.6875 11.125 C-6.35325722 7.48959981 -3.1177076 3.8217061 0 0 Z " fill="#DADADA" transform="translate(378,273)"/>
<path d="M0 0 C0.66 0 1.32 0 2 0 C1.67 2.64 1.34 5.28 1 8 C1.66 7.67 2.32 7.34 3 7 C2.52531987 11.27212118 -0.07385825 13.07385825 -3 16 C-3 16.99 -3 17.98 -3 19 C-4.53125 20.38671875 -4.53125 20.38671875 -6.5 21.6875 C-7.47453125 22.34298828 -7.47453125 22.34298828 -8.46875 23.01171875 C-9.22671875 23.50091797 -9.22671875 23.50091797 -10 24 C-8.12248827 17.63732136 -5.63380239 12.21946532 -2.3046875 6.48046875 C-1.14356296 4.27294155 -0.46529568 2.4342908 0 0 Z " fill="#D3D4D5" transform="translate(415,205)"/>
<path d="M0 0 C0 0.99 0 1.98 0 3 C-1.75 4.60546875 -1.75 4.60546875 -4 6.1875 C-4.7425 6.71730469 -5.485 7.24710938 -6.25 7.79296875 C-6.8275 8.19128906 -7.405 8.58960938 -8 9 C-8 8.34 -8 7.68 -8 7 C-10.31 7.33 -12.62 7.66 -15 8 C-14.505 7.38125 -14.01 6.7625 -13.5 6.125 C-11.80777227 4.16119096 -11.80777227 4.16119096 -12 2 C-10.75579353 1.4654744 -9.50429064 0.94791389 -8.25 0.4375 C-7.55390625 0.14746094 -6.8578125 -0.14257812 -6.140625 -0.44140625 C-3.69987216 -1.07831803 -2.3596345 -0.80248831 0 0 Z " fill="#C5C6C9" transform="translate(348,536)"/>
<path d="M0 0 C1.85772162 0.08984301 3.71247985 0.24611861 5.5625 0.4375 C7.08037109 0.59025391 7.08037109 0.59025391 8.62890625 0.74609375 C9.80259766 0.87177734 9.80259766 0.87177734 11 1 C8.3359375 4.90625 8.3359375 4.90625 5.3125 5.75 C4.1678125 5.87375 4.1678125 5.87375 3 6 C2.67 7.98 2.34 9.96 2 12 C0.02 10.35 -1.96 8.7 -4 7 C-1.125 1.125 -1.125 1.125 0 0 Z " fill="#D6D6D6" transform="translate(363,194)"/>
<path d="M0 0 C3 0 6 0 9 0 C9.7115625 -0.02320313 10.423125 -0.04640625 11.15625 -0.0703125 C11.9296875 -0.08835938 12.703125 -0.10640625 13.5 -0.125 C14.2734375 -0.14820313 15.046875 -0.17140625 15.84375 -0.1953125 C18 0 18 0 21 2 C19.35 2.66 17.7 3.32 16 4 C16 3.34 16 2.68 16 2 C15.45472656 2.2165625 14.90945312 2.433125 14.34765625 2.65625 C8.6405803 4.76347804 4.0737233 5.28922492 -2 5 C-1.34 3.35 -0.68 1.7 0 0 Z " fill="#D8D8DA" transform="translate(241,139)"/>
<path d="M0 0 C0.33 0 0.66 0 1 0 C1.06058594 1.14597656 1.12117187 2.29195313 1.18359375 3.47265625 C1.26806989 5.00261297 1.35271427 6.53256041 1.4375 8.0625 C1.47681641 8.81466797 1.51613281 9.56683594 1.55664062 10.34179688 C1.81568921 14.94489091 2.3351011 19.43436089 3 24 C3.10751986 26.6793948 3.0470821 29.31632049 3 32 C2.67 32 2.34 32 2 32 C1.67 30.02 1.34 28.04 1 26 C0.34 26.66 -0.32 27.32 -1 28 C-2.81678028 21.83692229 -3.00264575 18.21874207 -1 12 C-0.53246397 8.00834829 -0.25025319 4.01063669 0 0 Z " fill="#C0BFC0" transform="translate(252,471)"/>
<path d="M0 0 C0.33 0 0.66 0 1 0 C1.01458252 0.87624023 1.02916504 1.75248047 1.04418945 2.65527344 C1.10593876 5.96573441 1.18020835 9.27545721 1.26245117 12.58544922 C1.29531788 14.0068944 1.32346323 15.42845814 1.34643555 16.85009766 C1.49661298 25.90547739 2.31539513 34.27736725 5 43 C6.32 43.33 7.64 43.66 9 44 C9.33 42.68 9.66 41.36 10 40 C10.20086443 43.71599191 10.1519437 44.77208445 8 48 C4.50615903 46.60246361 3.46637763 45.41951011 2 42 C-0.72015933 33.37031038 -0.23015135 24.30889704 -0.125 15.375 C-0.11494608 13.87891227 -0.10582451 12.38281797 -0.09765625 10.88671875 C-0.07584308 7.25767374 -0.04144741 3.62888015 0 0 Z " fill="#B3B0B0" transform="translate(333,468)"/>
<path d="M0 0 C0.99 0.33 1.98 0.66 3 1 C0.94766315 3.2477975 -0.00667261 4.0022242 -3 5 C-3.99 6.485 -3.99 6.485 -5 8 C-7.0234375 8.58203125 -7.0234375 8.58203125 -9.375 8.8125 C-10.14585937 8.90144531 -10.91671875 8.99039063 -11.7109375 9.08203125 C-14.29825726 8.9893116 -15.79126831 8.3060765 -18 7 C-14.48812804 4.59185923 -12.27343092 3.63370592 -8 4 C-7.67 3.34 -7.34 2.68 -7 2 C-6.21625 2.04125 -5.4325 2.0825 -4.625 2.125 C-1.83883881 2.28728734 -1.83883881 2.28728734 0 0 Z " fill="#CACCCD" transform="translate(278,535)"/>
<path d="M0 0 C1.32 0 2.64 0 4 0 C4.33 1.32 4.66 2.64 5 4 C0.90274731 5.04167441 -2.61495224 4.94409525 -6.8125 4.5625 C-7.97394531 4.46066406 -9.13539063 4.35882813 -10.33203125 4.25390625 C-11.21246094 4.17011719 -12.09289062 4.08632812 -13 4 C-12.67 2.68 -12.34 1.36 -12 0 C-7.72202932 -1.16671928 -4.34248508 -0.71058847 0 0 Z " fill="#D7D7D8" transform="translate(307,208)"/>
<path d="M0 0 C2.10048591 3.40117141 2.14947274 5.75059106 1.75 9.6875 C1.66234375 10.66074219 1.5746875 11.63398437 1.484375 12.63671875 C1.24460937 13.80654297 1.24460937 13.80654297 1 15 C0.01 15.495 0.01 15.495 -1 16 C-1 15.34 -1 14.68 -1 14 C-1.77923828 14.63228516 -1.77923828 14.63228516 -2.57421875 15.27734375 C-9.85882353 21 -9.85882353 21 -14 21 C-16.7301306 20.47241379 -19.32122966 19.77184908 -22 19 C-21.67 18.34 -21.34 17.68 -21 17 C-20.27554687 17.13019531 -19.55109375 17.26039063 -18.8046875 17.39453125 C-14.05066662 18.07277156 -10.97573783 18.46125788 -6.5625 16.375 C-2.3959405 12.16013256 -1.38575249 5.56746441 0 0 Z " fill="#919299" transform="translate(354,508)"/>
<path d="M0 0 C-0.66 1.32 -1.32 2.64 -2 4 C-2.99 4 -3.98 4 -5 4 C-5.061875 4.556875 -5.12375 5.11375 -5.1875 5.6875 C-6.33373872 8.94987173 -8.49390197 10.68667874 -11 13 C-11.33 10.03 -11.66 7.06 -12 4 C-7.81413519 0.81076967 -5.29441695 -0.50423019 0 0 Z " fill="#D5D3D3" transform="translate(433,118)"/>
<path d="M0 0 C0.33 0 0.66 0 1 0 C1 8.58 1 17.16 1 26 C-0.32 25.34 -1.64 24.68 -3 24 C-3 20.7 -3 17.4 -3 14 C-2.01 13.67 -1.02 13.34 0 13 C0 8.71 0 4.42 0 0 Z " fill="#B4B2B3" transform="translate(228,369)"/>
<path d="M0 0 C5.28 0 10.56 0 16 0 C16 0.66 16 1.32 16 2 C17.32 2 18.64 2 20 2 C20 2.66 20 3.32 20 4 C13.25766581 4.12910853 6.69613196 3.797837 0 3 C0 2.01 0 1.02 0 0 Z " fill="#F2F4F4" transform="translate(344,129)"/>
<path d="M0 0 C0.66 0.33 1.32 0.66 2 1 C1.67854004 1.81098145 1.35708008 2.62196289 1.02587891 3.45751953 C-0.18326113 7.63282223 -0.34994897 11.3594864 -0.4140625 15.6796875 C-0.43342865 16.49245148 -0.4527948 17.30521545 -0.4727478 18.14260864 C-0.53217883 20.71996812 -0.57878181 23.29737315 -0.625 25.875 C-0.66321343 27.63022702 -0.70226709 29.38543597 -0.7421875 31.140625 C-0.83784999 35.42693524 -0.92201449 39.71333319 -1 44 C-1.33 44 -1.66 44 -2 44 C-2 29.81 -2 15.62 -2 1 C-1.34 0.67 -0.68 0.34 0 0 Z " fill="#B7B8B9" transform="translate(354,368)"/>
<path d="M0 0 C0.33 0.66 0.66 1.32 1 2 C-3.33333333 6.33333333 -7.66666667 10.66666667 -12 15 C-12 10.97761586 -10.40445265 8.12578844 -8 5 C-5.4375 3.75 -5.4375 3.75 -3 3 C-1.22722741 1.47992158 -1.22722741 1.47992158 0 0 Z " fill="#D1D1D2" transform="translate(399,244)"/>
<path d="M0 0 C1.32 0.33 2.64 0.66 4 1 C3.67 1.66 3.34 2.32 3 3 C3.763125 3.144375 4.52625 3.28875 5.3125 3.4375 C8 4 8 4 11 5 C11 5.66 11 6.32 11 7 C7.04 7 3.08 7 -1 7 C-0.34 6.67 0.32 6.34 1 6 C1 5.34 1 4.68 1 4 C-0.65 4 -2.3 4 -4 4 C-3.34 3.525625 -2.68 3.05125 -2 2.5625 C-1.34 2.046875 -0.68 1.53125 0 1 C0 0.67 0 0.34 0 0 Z " fill="#E0E0E1" transform="translate(177,147)"/>
<path d="M0 0 C1 3 1 3 0 5.875 C-2.52551216 9.82111275 -5.07691103 11.48330142 -9 14 C-9.33 13.01 -9.66 12.02 -10 11 C-9.278125 10.29875 -8.55625 9.5975 -7.8125 8.875 C-5.00176187 6.07229255 -2.50483774 3.07737208 0 0 Z " fill="#B0B2B6" transform="translate(489,168)"/>
<path d="M0 0 C0 0.66 0 1.32 0 2 C3.63 2.33 7.26 2.66 11 3 C11 3.33 11 3.66 11 4 C2.585 4.495 2.585 4.495 -6 5 C-6.33 5.66 -6.66 6.32 -7 7 C-7.66 7 -8.32 7 -9 7 C-7.53563715 2.36285097 -7.53563715 2.36285097 -5.0625 0.6875 C-3 0 -3 0 0 0 Z M-11 7 C-9 8 -9 8 -9 8 Z " fill="#E7E7E6" transform="translate(432,197)"/>
<path d="M0 0 C0.33 1.32 0.66 2.64 1 4 C-0.52994792 5.23697917 -2.05989583 6.47395833 -3.58984375 7.7109375 C-5.13266437 8.9666391 -5.13266437 8.9666391 -6 11 C-6.66 11 -7.32 11 -8 11 C-8.28875 11.639375 -8.5775 12.27875 -8.875 12.9375 C-10 15 -10 15 -12 16 C-10.75100708 9.75503539 -6.78159471 5.92489232 -2 2 C-1.34 2 -0.68 2 0 2 C0 1.34 0 0.68 0 0 Z " fill="#C3C2C0" transform="translate(363,251)"/>
<path d="M0 0 C2.40201504 4.19879794 2.15864149 7.24075541 2 12 C-1.465 13.485 -1.465 13.485 -5 15 C-3.33333333 10 -1.66666667 5 0 0 Z M0 4 C1 6 1 6 1 6 Z " fill="#B7B8BA" transform="translate(495,153)"/>
<path d="M0 0 C0.33 0.99 0.66 1.98 1 3 C1.66 3 2.32 3 3 3 C3 7.29 3 11.58 3 16 C2.01 16.33 1.02 16.66 0 17 C0 11.39 0 5.78 0 0 Z " fill="#DCDEDE" transform="translate(353,376)"/>
<path d="M0 0 C1 3 1 3 -0.3125 5.6875 C-0.869375 6.450625 -1.42625 7.21375 -2 8 C-2.66 8 -3.32 8 -4 8 C-4 8.66 -4 9.32 -4 10 C-5.609375 11.55078125 -5.609375 11.55078125 -7.75 13.3125 C-10.90170177 15.98362313 -13.55769329 18.64182828 -16 22 C-15.6761232 16.81797122 -12.73713006 14.33297247 -9.125 11 C-5.45230578 7.56284674 -2.37399216 4.51556551 0 0 Z " fill="#AEACAC" transform="translate(367,243)"/>
<path d="M0 0 C0.8353125 0.2475 0.8353125 0.2475 1.6875 0.5 C4.18691249 1.04041351 6.45045662 1.07082065 9 1 C9 2.32 9 3.64 9 5 C2.375 6.25 2.375 6.25 -1 4 C-0.67 2.68 -0.34 1.36 0 0 Z " fill="#D9D8D8" transform="translate(320,209)"/>
<path d="M0 0 C0.33 0 0.66 0 1 0 C0.63076923 7.26153846 0.63076923 7.26153846 -2.5625 11 C-3.366875 11.66 -4.17125 12.32 -5 13 C-5.33 12.34 -5.66 11.68 -6 11 C-5.0390625 8.65234375 -5.0390625 8.65234375 -3.625 5.9375 C-2.93277344 4.58978516 -2.93277344 4.58978516 -2.2265625 3.21484375 C-1 1 -1 1 0 0 Z " fill="#C5C7C8" transform="translate(492,166)"/>
<path d="M0 0 C0.99 0.495 0.99 0.495 2 1 C1.01 1.495 1.01 1.495 0 2 C0 1.34 0 0.68 0 0 Z M-1 2 C-0.34 2.33 0.32 2.66 1 3 C0.67 4.98 0.34 6.96 0 9 C-4.29 9 -8.58 9 -13 9 C-13 8.67 -13 8.34 -13 8 C-12.30132812 7.90203125 -11.60265625 7.8040625 -10.8828125 7.703125 C-9.51769531 7.47882813 -9.51769531 7.47882813 -8.125 7.25 C-7.22007812 7.11078125 -6.31515625 6.9715625 -5.3828125 6.828125 C-2.83785757 6.22016157 -2.83785757 6.22016157 -1.6796875 3.921875 C-1.34324219 2.97054687 -1.34324219 2.97054687 -1 2 Z " fill="#C9C9C9" transform="translate(213,166)"/>
<path d="M0 0 C2.31 0 4.62 0 7 0 C6.34 0.66 5.68 1.32 5 2 C4.01 2 3.02 2 2 2 C2 8.93 2 15.86 2 23 C1.67 23 1.34 23 1 23 C0.67 15.41 0.34 7.82 0 0 Z " fill="#929091" transform="translate(213,133)"/>
<path d="M0 0 C0 0.33 0 0.66 0 1 C-1.65 1.33 -3.3 1.66 -5 2 C-5.33 3.98 -5.66 5.96 -6 8 C-7.98 6.35 -9.96 4.7 -12 3 C-8.20587784 -0.79412216 -5.14176915 -0.08293176 0 0 Z " fill="#E6E4E3" transform="translate(371,198)"/>
<path d="M0 0 C3.3 0.33 6.6 0.66 10 1 C8.4375 3.0625 8.4375 3.0625 6 5 C2.25 4.75 2.25 4.75 -1 4 C-0.67 2.68 -0.34 1.36 0 0 Z " fill="#E6E7E7" transform="translate(224,198)"/>
<path d="M0 0 C0.33 0 0.66 0 1 0 C2.62077189 5.61036424 3.55579195 9.46245077 1 15 C0.34 14.34 -0.32 13.68 -1 13 C-0.9765625 9.9609375 -0.9765625 9.9609375 -0.625 6.375 C-0.51414062 5.18648438 -0.40328125 3.99796875 -0.2890625 2.7734375 C-0.19367188 1.85820312 -0.09828125 0.94296875 0 0 Z " fill="#D1D1D1" transform="translate(268,262)"/>
<path d="M0 0 C0 0.99 0 1.98 0 3 C-5.94 3.495 -5.94 3.495 -12 4 C-12 3.34 -12 2.68 -12 2 C-10.75579353 1.4654744 -9.50429064 0.94791389 -8.25 0.4375 C-7.55390625 0.14746094 -6.8578125 -0.14257812 -6.140625 -0.44140625 C-3.69987216 -1.07831803 -2.3596345 -0.80248831 0 0 Z " fill="#B3B5B8" transform="translate(348,536)"/>
<path d="M0 0 C0 4.00333149 -0.93272472 6.80957758 -3.625 9.8125 C-4.07875 10.204375 -4.5325 10.59625 -5 11 C-5.99 10.67 -6.98 10.34 -8 10 C-6.625 8 -6.625 8 -5 6 C-4.34 6 -3.68 6 -3 6 C-2.690625 5.195625 -2.38125 4.39125 -2.0625 3.5625 C-1 1 -1 1 0 0 Z " fill="#D5D5D6" transform="translate(267,286)"/>
<path d="M0 0 C0 3.96130371 -1.34877125 4.82914401 -4 7.6875 C-4.7425 8.49574219 -5.485 9.30398438 -6.25 10.13671875 C-6.8275 10.75160156 -7.405 11.36648438 -8 12 C-8 8.24111186 -7.049166 7.58681685 -4.5625 4.875 C-3.92441406 4.17117188 -3.28632813 3.46734375 -2.62890625 2.7421875 C-1.76410115 1.81724008 -0.89538137 0.89538137 0 0 Z " fill="#C7C7C9" transform="translate(371,277)"/>
<path d="M0 0 C0.99 0.33 1.98 0.66 3 1 C0.7991151 3.47859908 -1.06372969 4.61210366 -4.1875 5.6875 C-5.26064453 6.06455078 -5.26064453 6.06455078 -6.35546875 6.44921875 C-6.89816406 6.63097656 -7.44085938 6.81273437 -8 7 C-7.67 5.35 -7.34 3.7 -7 2 C-6.21625 2.04125 -5.4325 2.0825 -4.625 2.125 C-1.83883881 2.28728734 -1.83883881 2.28728734 0 0 Z " fill="#B6B8BA" transform="translate(278,535)"/>
<path d="M0 0 C0.99 0.495 0.99 0.495 2 1 C2.63385922 3.04243528 3.01826504 5.09132519 3.4375 7.1875 C3.623125 7.785625 3.80875 8.38375 4 9 C4.66 9.33 5.32 9.66 6 10 C6 11.32 6 12.64 6 14 C3 13 3 13 1.3125 9.8125 C-0.01535157 6.4652075 -0.26451861 3.61508773 0 0 Z " fill="#BFBDBF" transform="translate(267,502)"/>
<path d="M0 0 C1.0772656 3.23179679 1.25643258 3.94866374 0 7 C-1.62449243 8.70779973 -3.29220027 10.37550757 -5 12 C-5.99 13.485 -5.99 13.485 -7 15 C-7.66 14.67 -8.32 14.34 -9 14 C-6.03 9.38 -3.06 4.76 0 0 Z " fill="#B2B0AF" transform="translate(379,224)"/>
<path d="M0 0 C1.98 0.495 1.98 0.495 4 1 C3.01 2.485 3.01 2.485 2 4 C2.33 4.33 2.66 4.66 3 5 C2.34 6.32 1.68 7.64 1 9 C0.34 8.34 -0.32 7.68 -1 7 C-0.625 3.375 -0.625 3.375 0 0 Z M-1 8 C-1 11 -1 11 -1 11 Z " fill="#C2C3C3" transform="translate(257,296)"/>
<path d="M0 0 C0.66 0 1.32 0 2 0 C1.58578031 4.83256305 -0.46413986 6.82679218 -4 10 C-2.99806563 6.20696275 -2.18975773 3.28463659 0 0 Z " fill="#DADBDA" transform="translate(259,305)"/>
<path d="M0 0 C-1.5625 1.5625 -1.5625 1.5625 -4 3 C-7.75 2.6875 -7.75 2.6875 -11 2 C-10.01 1.67 -9.02 1.34 -8 1 C-8 0.34 -8 -0.32 -8 -1 C-4.59745511 -2.2151946 -3.06748874 -1.86240388 0 0 Z " fill="#D5D6D8" transform="translate(465,195)"/>
<path d="M0 0 C1.28317658 2.1134673 2.01559731 3.50088598 1.9375 6 C0.60240388 8.84820505 -1.48196904 10.1921829 -4 12 C-4.66 11.67 -5.32 11.34 -6 11 C-5.195625 10.113125 -4.39125 9.22625 -3.5625 8.3125 C-1.2960841 5.61712968 -0.31582634 3.57936522 0 0 Z " fill="#AAAAAB" transform="translate(323,507)"/>
<path d="M0 0 C0.33 0 0.66 0 1 0 C1.24858198 2.77034137 1.47452879 5.53939069 1.6875 8.3125 C1.76033203 9.09818359 1.83316406 9.88386719 1.90820312 10.69335938 C1.96298828 11.45068359 2.01777344 12.20800781 2.07421875 12.98828125 C2.13182373 13.68477783 2.18942871 14.38127441 2.2487793 15.09887695 C2 17 2 17 -1 20 C-0.67 13.4 -0.34 6.8 0 0 Z " fill="#96969A" transform="translate(497,132)"/>
<path d="M0 0 C0.33 0 0.66 0 1 0 C1.33 3.96 1.66 7.92 2 12 C0.68 12.33 -0.64 12.66 -2 13 C-2 11.35 -2 9.7 -2 8 C-1.34 8 -0.68 8 0 8 C0 5.36 0 2.72 0 0 Z " fill="#D5D5D6" transform="translate(224,227)"/>
<path d="M0 0 C2.475 0.495 2.475 0.495 5 1 C5.33 1.99 5.66 2.98 6 4 C7.65 4.33 9.3 4.66 11 5 C8 7 8 7 5 7 C3.4375 4.625 3.4375 4.625 2 2 C1.34 1.34 0.68 0.68 0 0 Z " fill="#D5D6D6" transform="translate(191,150)"/>
<path d="M0 0 C0.66 0.99 1.32 1.98 2 3 C-0.75 7.875 -0.75 7.875 -3 9 C-2.67 6.69 -2.34 4.38 -2 2 C-1.34 2 -0.68 2 0 2 C0 1.34 0 0.68 0 0 Z " fill="#D9D9D9" transform="translate(355,303)"/>
<path d="M0 0 C0.66 0.66 1.32 1.32 2 2 C1.875 5 1.875 5 1 8 C-0.98 8.99 -0.98 8.99 -3 10 C-2.01 6.7 -1.02 3.4 0 0 Z " fill="#ADADAE" transform="translate(262,283)"/>
<path d="M0 0 C0.66 0.33 1.32 0.66 2 1 C1.75 3.875 1.75 3.875 1 7 C-0.98 7.99 -0.98 7.99 -3 9 C-2.01 6.03 -1.02 3.06 0 0 Z " fill="#BBBCBB" transform="translate(266,274)"/>
<path d="M0 0 C1.32 0.33 2.64 0.66 4 1 C3.67 1.66 3.34 2.32 3 3 C4.65 3.33 6.3 3.66 8 4 C4.90521121 5.03159626 3.47368607 4.97482862 0.3125 4.5625 C-0.89986328 4.40974609 -0.89986328 4.40974609 -2.13671875 4.25390625 C-2.75160156 4.17011719 -3.36648437 4.08632812 -4 4 C-3.34 3.525625 -2.68 3.05125 -2 2.5625 C-1.34 2.046875 -0.68 1.53125 0 1 C0 0.67 0 0.34 0 0 Z " fill="#D3D4D6" transform="translate(177,147)"/>
<path d="M0 0 C1.65 0 3.3 0 5 0 C3.02 2.31 1.04 4.62 -1 7 C-2 4 -2 4 -1.0625 1.8125 C-0.5365625 0.9153125 -0.5365625 0.9153125 0 0 Z " fill="#B6B4B2" transform="translate(393,195)"/>
<path d="M0 0 C0.66 0 1.32 0 2 0 C1.57405412 1.44096586 1.13373367 2.87768712 0.6875 4.3125 C0.44386719 5.11300781 0.20023437 5.91351563 -0.05078125 6.73828125 C-1.04182023 9.09964573 -2.08074943 10.33879993 -4 12 C-3.04943533 7.88088642 -1.89436282 3.78872565 0 0 Z " fill="#CACCCB" transform="translate(415,205)"/>
<path d="M0 0 C1.98 0 3.96 0 6 0 C6.33 0.66 6.66 1.32 7 2 C1.375 4 1.375 4 -2 4 C-1.34 2.68 -0.68 1.36 0 0 Z " fill="#CDCBCA" transform="translate(331,211)"/>
<path d="M0 0 C0.33 0.99 0.66 1.98 1 3 C-0.65 4.65 -2.3 6.3 -4 8 C-4.66 7.67 -5.32 7.34 -6 7 C-4.02 4.69 -2.04 2.38 0 0 Z " fill="#DBDBDC" transform="translate(417,212)"/>
<path d="M0 0 C1.98 0.99 1.98 0.99 4 2 C2.25 6.875 2.25 6.875 0 8 C0 5.36 0 2.72 0 0 Z " fill="#E2E3E3" transform="translate(290,460)"/>
<path d="M0 0 C0.99 0.66 1.98 1.32 3 2 C-0.96 3.98 -0.96 3.98 -5 6 C-4.67 5.01 -4.34 4.02 -4 3 C-3.34 3 -2.68 3 -2 3 C-2 2.34 -2 1.68 -2 1 C-1.34 0.67 -0.68 0.34 0 0 Z " fill="#C2C0C0" transform="translate(250,194)"/>
<path d="M0 0 C0.66 0.33 1.32 0.66 2 1 C-0.31 3.31 -2.62 5.62 -5 8 C-5.66 7.34 -6.32 6.68 -7 6 C-4.69 4.02 -2.38 2.04 0 0 Z " fill="#DBDCDE" transform="translate(484,185)"/>
<path d="M0 0 C0.66 0.33 1.32 0.66 2 1 C0.515 2.485 0.515 2.485 -1 4 C-1.99 3.67 -2.98 3.34 -4 3 C-2.68 2.01 -1.36 1.02 0 0 Z M-6 4 C-5.34 4.33 -4.68 4.66 -4 5 C-5.32 5.99 -6.64 6.98 -8 8 C-7.34 6.68 -6.68 5.36 -6 4 Z " fill="#E4E3E3" transform="translate(228,144)"/>
<path d="M0 0 C-2.66666667 0.66666667 -5.33333333 1.33333333 -8 2 C-8 1.01 -8 0.02 -8 -1 C-4.59745511 -2.2151946 -3.06748874 -1.86240388 0 0 Z " fill="#D5D5D6" transform="translate(326,123)"/>
<path d="M0 0 C0.99 1.32 1.98 2.64 3 4 C2.34 5.32 1.68 6.64 1 8 C0.34 8 -0.32 8 -1 8 C-0.67 5.36 -0.34 2.72 0 0 Z " fill="#DCDCDB" transform="translate(251,327)"/>
<path d="M0 0 C0.66 0.33 1.32 0.66 2 1 C0.68 2.65 -0.64 4.3 -2 6 C-2.66 5.67 -3.32 5.34 -4 5 C-2.68 3.35 -1.36 1.7 0 0 Z " fill="#DEDFDF" transform="translate(494,175)"/>
</svg>
